<mxfile host="Electron" agent="Mozilla/5.0 (Windows NT 10.0; Win64; x64) AppleWebKit/537.36 (KHTML, like Gecko) draw.io/24.7.17 Chrome/128.0.6613.36 Electron/32.0.1 Safari/537.36" version="24.7.17">
  <diagram name="第1頁" id="q_i-FiuycsIScG7VY103">
    <mxGraphModel dx="1036" dy="606" grid="1" gridSize="10" guides="1" tooltips="1" connect="1" arrows="1" fold="1" page="1" pageScale="1" pageWidth="827" pageHeight="1169" math="0" shadow="0">
      <root>
        <mxCell id="0" />
        <mxCell id="1" parent="0" />
        <mxCell id="hkdZcMtisLhz9Ig-_JKM-3" style="edgeStyle=orthogonalEdgeStyle;rounded=0;orthogonalLoop=1;jettySize=auto;html=1;exitX=0.5;exitY=1;exitDx=0;exitDy=0;entryX=0.5;entryY=0;entryDx=0;entryDy=0;" parent="1" source="hkdZcMtisLhz9Ig-_JKM-1" target="hkdZcMtisLhz9Ig-_JKM-2" edge="1">
          <mxGeometry relative="1" as="geometry" />
        </mxCell>
        <mxCell id="hkdZcMtisLhz9Ig-_JKM-1" value="使用者&lt;br style=&quot;font-size: 16px;&quot;&gt;(婚姻新人)" style="ellipse;whiteSpace=wrap;html=1;fontSize=16;" parent="1" vertex="1">
          <mxGeometry x="350" y="20" width="120" height="80" as="geometry" />
        </mxCell>
        <mxCell id="hkdZcMtisLhz9Ig-_JKM-5" style="edgeStyle=orthogonalEdgeStyle;rounded=0;orthogonalLoop=1;jettySize=auto;html=1;exitX=0.5;exitY=1;exitDx=0;exitDy=0;entryX=0.5;entryY=0;entryDx=0;entryDy=0;" parent="1" source="hkdZcMtisLhz9Ig-_JKM-2" target="hkdZcMtisLhz9Ig-_JKM-4" edge="1">
          <mxGeometry relative="1" as="geometry" />
        </mxCell>
        <mxCell id="hkdZcMtisLhz9Ig-_JKM-2" value="網站形式" style="rounded=1;whiteSpace=wrap;html=1;fontSize=16;" parent="1" vertex="1">
          <mxGeometry x="350" y="140" width="120" height="60" as="geometry" />
        </mxCell>
        <mxCell id="hkdZcMtisLhz9Ig-_JKM-7" style="edgeStyle=orthogonalEdgeStyle;rounded=0;orthogonalLoop=1;jettySize=auto;html=1;exitX=0.5;exitY=1;exitDx=0;exitDy=0;entryX=0.5;entryY=0;entryDx=0;entryDy=0;" parent="1" source="hkdZcMtisLhz9Ig-_JKM-4" target="hkdZcMtisLhz9Ig-_JKM-6" edge="1">
          <mxGeometry relative="1" as="geometry" />
        </mxCell>
        <mxCell id="hkdZcMtisLhz9Ig-_JKM-8" value="輸入基本新人資料" style="edgeLabel;html=1;align=center;verticalAlign=middle;resizable=0;points=[];fontSize=13;" parent="hkdZcMtisLhz9Ig-_JKM-7" vertex="1" connectable="0">
          <mxGeometry x="-0.504" y="2" relative="1" as="geometry">
            <mxPoint x="-2" y="13" as="offset" />
          </mxGeometry>
        </mxCell>
        <mxCell id="hkdZcMtisLhz9Ig-_JKM-4" value="UI" style="rounded=1;whiteSpace=wrap;html=1;fontSize=19;" parent="1" vertex="1">
          <mxGeometry x="350" y="240" width="120" height="60" as="geometry" />
        </mxCell>
        <mxCell id="hkdZcMtisLhz9Ig-_JKM-12" style="edgeStyle=orthogonalEdgeStyle;rounded=0;orthogonalLoop=1;jettySize=auto;html=1;exitX=0.5;exitY=1;exitDx=0;exitDy=0;entryX=0.5;entryY=0;entryDx=0;entryDy=0;" parent="1" source="hkdZcMtisLhz9Ig-_JKM-6" target="hkdZcMtisLhz9Ig-_JKM-11" edge="1">
          <mxGeometry relative="1" as="geometry" />
        </mxCell>
        <mxCell id="hkdZcMtisLhz9Ig-_JKM-6" value="新人資料驗證與儲存" style="rounded=1;whiteSpace=wrap;html=1;fontSize=15;" parent="1" vertex="1">
          <mxGeometry x="350" y="370" width="120" height="60" as="geometry" />
        </mxCell>
        <mxCell id="hkdZcMtisLhz9Ig-_JKM-20" style="edgeStyle=orthogonalEdgeStyle;rounded=0;orthogonalLoop=1;jettySize=auto;html=1;exitX=0.5;exitY=1;exitDx=0;exitDy=0;exitPerimeter=0;" parent="1" edge="1">
          <mxGeometry relative="1" as="geometry">
            <mxPoint x="440" y="665" as="targetPoint" />
            <mxPoint x="780" y="430" as="sourcePoint" />
            <Array as="points">
              <mxPoint x="780" y="665" />
            </Array>
          </mxGeometry>
        </mxCell>
        <mxCell id="hkdZcMtisLhz9Ig-_JKM-21" value="調用新人與賓客資料" style="edgeLabel;html=1;align=center;verticalAlign=middle;resizable=0;points=[];fontSize=14;" parent="hkdZcMtisLhz9Ig-_JKM-20" vertex="1" connectable="0">
          <mxGeometry x="0.6319" relative="1" as="geometry">
            <mxPoint x="229" y="-95" as="offset" />
          </mxGeometry>
        </mxCell>
        <mxCell id="hkdZcMtisLhz9Ig-_JKM-47" style="edgeStyle=orthogonalEdgeStyle;rounded=0;orthogonalLoop=1;jettySize=auto;html=1;exitX=0.5;exitY=1;exitDx=0;exitDy=0;exitPerimeter=0;" parent="1" source="hkdZcMtisLhz9Ig-_JKM-9" edge="1">
          <mxGeometry relative="1" as="geometry">
            <mxPoint x="440" y="1200" as="targetPoint" />
            <mxPoint x="677.5" y="460" as="sourcePoint" />
            <Array as="points">
              <mxPoint x="780" y="445" />
              <mxPoint x="780" y="1200" />
            </Array>
          </mxGeometry>
        </mxCell>
        <mxCell id="hkdZcMtisLhz9Ig-_JKM-9" value="新人與賓客&lt;br&gt;資料庫" style="shape=cylinder3;whiteSpace=wrap;html=1;boundedLbl=1;backgroundOutline=1;size=15;fontSize=14;" parent="1" vertex="1">
          <mxGeometry x="730" y="355" width="90" height="90" as="geometry" />
        </mxCell>
        <mxCell id="hkdZcMtisLhz9Ig-_JKM-10" style="edgeStyle=orthogonalEdgeStyle;rounded=0;orthogonalLoop=1;jettySize=auto;html=1;entryX=0;entryY=0.5;entryDx=0;entryDy=0;entryPerimeter=0;" parent="1" source="hkdZcMtisLhz9Ig-_JKM-6" target="hkdZcMtisLhz9Ig-_JKM-9" edge="1">
          <mxGeometry relative="1" as="geometry" />
        </mxCell>
        <mxCell id="hkdZcMtisLhz9Ig-_JKM-15" value="儲存新人資料" style="edgeLabel;html=1;align=center;verticalAlign=middle;resizable=0;points=[];fontSize=13;" parent="hkdZcMtisLhz9Ig-_JKM-10" vertex="1" connectable="0">
          <mxGeometry x="0.0018" y="1" relative="1" as="geometry">
            <mxPoint as="offset" />
          </mxGeometry>
        </mxCell>
        <mxCell id="hkdZcMtisLhz9Ig-_JKM-19" style="edgeStyle=orthogonalEdgeStyle;rounded=0;orthogonalLoop=1;jettySize=auto;html=1;" parent="1" source="hkdZcMtisLhz9Ig-_JKM-11" edge="1">
          <mxGeometry relative="1" as="geometry">
            <mxPoint x="410" y="660" as="targetPoint" />
          </mxGeometry>
        </mxCell>
        <mxCell id="hkdZcMtisLhz9Ig-_JKM-11" value="賓客名單解析&lt;br&gt;與驗證" style="rounded=1;whiteSpace=wrap;html=1;fontSize=15;" parent="1" vertex="1">
          <mxGeometry x="350" y="540" width="120" height="60" as="geometry" />
        </mxCell>
        <mxCell id="hkdZcMtisLhz9Ig-_JKM-13" value="輸入賓客相關資料&lt;br&gt;(賓客姓名、關係、喜好、如何認識、&lt;br&gt;之前好的回憶、電子郵件)" style="edgeLabel;html=1;align=center;verticalAlign=middle;resizable=0;points=[];fontSize=13;" parent="1" vertex="1" connectable="0">
          <mxGeometry x="412.9999999999998" y="479.9970588235293" as="geometry">
            <mxPoint x="-3" y="2" as="offset" />
          </mxGeometry>
        </mxCell>
        <mxCell id="hkdZcMtisLhz9Ig-_JKM-16" style="edgeStyle=orthogonalEdgeStyle;rounded=0;orthogonalLoop=1;jettySize=auto;html=1;exitX=1;exitY=0.5;exitDx=0;exitDy=0;entryX=0;entryY=0;entryDx=0;entryDy=60;entryPerimeter=0;" parent="1" source="hkdZcMtisLhz9Ig-_JKM-11" target="hkdZcMtisLhz9Ig-_JKM-9" edge="1">
          <mxGeometry relative="1" as="geometry" />
        </mxCell>
        <mxCell id="hkdZcMtisLhz9Ig-_JKM-17" value="&lt;font style=&quot;font-size: 13px;&quot;&gt;儲存賓客資料&lt;/font&gt;" style="edgeLabel;html=1;align=center;verticalAlign=middle;resizable=0;points=[];" parent="hkdZcMtisLhz9Ig-_JKM-16" vertex="1" connectable="0">
          <mxGeometry x="-0.1808" y="2" relative="1" as="geometry">
            <mxPoint as="offset" />
          </mxGeometry>
        </mxCell>
        <mxCell id="hkdZcMtisLhz9Ig-_JKM-18" value="&lt;font style=&quot;font-size: 17px;&quot;&gt;LLM&lt;/font&gt;" style="edgeLabel;html=1;align=center;verticalAlign=middle;resizable=0;points=[];fontSize=17;" parent="1" vertex="1" connectable="0">
          <mxGeometry x="410" y="679.9982619110939" as="geometry" />
        </mxCell>
        <mxCell id="hkdZcMtisLhz9Ig-_JKM-25" style="edgeStyle=orthogonalEdgeStyle;rounded=0;orthogonalLoop=1;jettySize=auto;html=1;exitX=0.5;exitY=1;exitDx=0;exitDy=0;" parent="1" source="hkdZcMtisLhz9Ig-_JKM-22" edge="1">
          <mxGeometry relative="1" as="geometry">
            <mxPoint x="410" y="870" as="targetPoint" />
          </mxGeometry>
        </mxCell>
        <mxCell id="hkdZcMtisLhz9Ig-_JKM-26" value="&lt;font style=&quot;font-size: 14px;&quot;&gt;提供給ChatGPT-4o&lt;/font&gt;" style="edgeLabel;html=1;align=center;verticalAlign=middle;resizable=0;points=[];" parent="hkdZcMtisLhz9Ig-_JKM-25" vertex="1" connectable="0">
          <mxGeometry x="-0.0136" y="-1" relative="1" as="geometry">
            <mxPoint x="-1" y="1" as="offset" />
          </mxGeometry>
        </mxCell>
        <mxCell id="hkdZcMtisLhz9Ig-_JKM-22" value="整合新人&lt;br&gt;和賓客資訊" style="rounded=1;whiteSpace=wrap;html=1;fontSize=15;" parent="1" vertex="1">
          <mxGeometry x="350" y="750" width="120" height="60" as="geometry" />
        </mxCell>
        <mxCell id="hkdZcMtisLhz9Ig-_JKM-23" style="edgeStyle=orthogonalEdgeStyle;rounded=0;orthogonalLoop=1;jettySize=auto;html=1;entryX=0.5;entryY=0;entryDx=0;entryDy=0;" parent="1" target="hkdZcMtisLhz9Ig-_JKM-22" edge="1">
          <mxGeometry relative="1" as="geometry">
            <mxPoint x="420" y="670" as="targetPoint" />
            <mxPoint x="410" y="690" as="sourcePoint" />
          </mxGeometry>
        </mxCell>
        <mxCell id="hkdZcMtisLhz9Ig-_JKM-24" value="ChatGPT-4o" style="edgeLabel;html=1;align=center;verticalAlign=middle;resizable=0;points=[];fontSize=17;" parent="1" vertex="1" connectable="0">
          <mxGeometry x="410" y="879.9982619110939" as="geometry">
            <mxPoint x="2" y="12" as="offset" />
          </mxGeometry>
        </mxCell>
        <mxCell id="hkdZcMtisLhz9Ig-_JKM-29" value="" style="endArrow=classic;html=1;rounded=0;entryX=0.5;entryY=0;entryDx=0;entryDy=0;" parent="1" target="hkdZcMtisLhz9Ig-_JKM-30" edge="1">
          <mxGeometry width="50" height="50" relative="1" as="geometry">
            <mxPoint x="410" y="910" as="sourcePoint" />
            <mxPoint x="410" y="940" as="targetPoint" />
          </mxGeometry>
        </mxCell>
        <mxCell id="hkdZcMtisLhz9Ig-_JKM-33" style="edgeStyle=orthogonalEdgeStyle;rounded=0;orthogonalLoop=1;jettySize=auto;html=1;entryX=0;entryY=0.5;entryDx=0;entryDy=0;" parent="1" source="hkdZcMtisLhz9Ig-_JKM-30" target="hkdZcMtisLhz9Ig-_JKM-32" edge="1">
          <mxGeometry relative="1" as="geometry" />
        </mxCell>
        <mxCell id="hkdZcMtisLhz9Ig-_JKM-30" value="生成預覽卡片" style="rounded=1;whiteSpace=wrap;html=1;fontSize=15;" parent="1" vertex="1">
          <mxGeometry x="350" y="950" width="120" height="60" as="geometry" />
        </mxCell>
        <mxCell id="hkdZcMtisLhz9Ig-_JKM-36" value="" style="edgeStyle=orthogonalEdgeStyle;rounded=0;orthogonalLoop=1;jettySize=auto;html=1;entryX=0.5;entryY=1;entryDx=0;entryDy=0;" parent="1" source="hkdZcMtisLhz9Ig-_JKM-32" target="hkdZcMtisLhz9Ig-_JKM-37" edge="1">
          <mxGeometry relative="1" as="geometry">
            <mxPoint x="569.9411764705881" y="910" as="targetPoint" />
          </mxGeometry>
        </mxCell>
        <mxCell id="hkdZcMtisLhz9Ig-_JKM-41" value="&lt;font style=&quot;font-size: 15px;&quot;&gt;不滿意&lt;/font&gt;" style="edgeLabel;html=1;align=center;verticalAlign=middle;resizable=0;points=[];" parent="hkdZcMtisLhz9Ig-_JKM-36" vertex="1" connectable="0">
          <mxGeometry x="-0.0941" y="1" relative="1" as="geometry">
            <mxPoint as="offset" />
          </mxGeometry>
        </mxCell>
        <mxCell id="hkdZcMtisLhz9Ig-_JKM-43" value="" style="edgeStyle=orthogonalEdgeStyle;rounded=0;orthogonalLoop=1;jettySize=auto;html=1;" parent="1" source="hkdZcMtisLhz9Ig-_JKM-32" target="hkdZcMtisLhz9Ig-_JKM-42" edge="1">
          <mxGeometry relative="1" as="geometry">
            <Array as="points">
              <mxPoint x="570" y="1050" />
              <mxPoint x="410" y="1050" />
            </Array>
          </mxGeometry>
        </mxCell>
        <mxCell id="hkdZcMtisLhz9Ig-_JKM-44" value="&lt;font style=&quot;font-size: 15px;&quot;&gt;滿意&lt;/font&gt;" style="edgeLabel;html=1;align=center;verticalAlign=middle;resizable=0;points=[];" parent="hkdZcMtisLhz9Ig-_JKM-43" vertex="1" connectable="0">
          <mxGeometry x="-0.1627" y="-1" relative="1" as="geometry">
            <mxPoint x="66" y="1" as="offset" />
          </mxGeometry>
        </mxCell>
        <mxCell id="qrtApSuX-HS33oVbi5O9-2" value="" style="edgeStyle=orthogonalEdgeStyle;rounded=0;orthogonalLoop=1;jettySize=auto;html=1;" edge="1" parent="1" source="hkdZcMtisLhz9Ig-_JKM-32" target="qrtApSuX-HS33oVbi5O9-1">
          <mxGeometry relative="1" as="geometry" />
        </mxCell>
        <mxCell id="qrtApSuX-HS33oVbi5O9-3" value="&lt;font style=&quot;font-size: 14px;&quot;&gt;不滿意&lt;/font&gt;" style="edgeLabel;html=1;align=center;verticalAlign=middle;resizable=0;points=[];" vertex="1" connectable="0" parent="qrtApSuX-HS33oVbi5O9-2">
          <mxGeometry x="-0.564" y="-1" relative="1" as="geometry">
            <mxPoint as="offset" />
          </mxGeometry>
        </mxCell>
        <mxCell id="hkdZcMtisLhz9Ig-_JKM-32" value="&lt;font style=&quot;font-size: 14px;&quot;&gt;滿意&lt;br&gt;與否&lt;/font&gt;" style="rhombus;whiteSpace=wrap;html=1;" parent="1" vertex="1">
          <mxGeometry x="530" y="940" width="80" height="80" as="geometry" />
        </mxCell>
        <mxCell id="hkdZcMtisLhz9Ig-_JKM-39" style="edgeStyle=orthogonalEdgeStyle;rounded=0;orthogonalLoop=1;jettySize=auto;html=1;" parent="1" source="hkdZcMtisLhz9Ig-_JKM-37" edge="1">
          <mxGeometry relative="1" as="geometry">
            <mxPoint x="440" y="690" as="targetPoint" />
            <Array as="points">
              <mxPoint x="571" y="690" />
            </Array>
          </mxGeometry>
        </mxCell>
        <mxCell id="hkdZcMtisLhz9Ig-_JKM-40" value="&lt;font style=&quot;font-size: 14px;&quot;&gt;用戶提供修改意見&lt;/font&gt;" style="edgeLabel;html=1;align=center;verticalAlign=middle;resizable=0;points=[];" parent="hkdZcMtisLhz9Ig-_JKM-39" vertex="1" connectable="0">
          <mxGeometry x="-0.3159" y="-2" relative="1" as="geometry">
            <mxPoint x="-3" y="16" as="offset" />
          </mxGeometry>
        </mxCell>
        <mxCell id="hkdZcMtisLhz9Ig-_JKM-37" value="再編輯，重新生成卡片" style="rounded=1;whiteSpace=wrap;html=1;fontSize=15;" parent="1" vertex="1">
          <mxGeometry x="510" y="810" width="120" height="60" as="geometry" />
        </mxCell>
        <mxCell id="hkdZcMtisLhz9Ig-_JKM-46" style="edgeStyle=orthogonalEdgeStyle;rounded=0;orthogonalLoop=1;jettySize=auto;html=1;exitX=0.5;exitY=1;exitDx=0;exitDy=0;" parent="1" source="hkdZcMtisLhz9Ig-_JKM-42" edge="1">
          <mxGeometry relative="1" as="geometry">
            <mxPoint x="410.41176470588243" y="1180" as="targetPoint" />
          </mxGeometry>
        </mxCell>
        <mxCell id="hkdZcMtisLhz9Ig-_JKM-42" value="&lt;font style=&quot;font-size: 15px;&quot;&gt;確認&lt;/font&gt;" style="rounded=1;whiteSpace=wrap;html=1;" parent="1" vertex="1">
          <mxGeometry x="365" y="1090" width="90" height="40" as="geometry" />
        </mxCell>
        <mxCell id="hkdZcMtisLhz9Ig-_JKM-45" value="&lt;font style=&quot;font-size: 17px;&quot;&gt;LLM&lt;/font&gt;" style="edgeLabel;html=1;align=center;verticalAlign=middle;resizable=0;points=[];fontSize=17;" parent="1" vertex="1" connectable="0">
          <mxGeometry x="150" y="869.9982619110939" as="geometry">
            <mxPoint x="259" y="328" as="offset" />
          </mxGeometry>
        </mxCell>
        <mxCell id="hkdZcMtisLhz9Ig-_JKM-51" style="edgeStyle=orthogonalEdgeStyle;rounded=0;orthogonalLoop=1;jettySize=auto;html=1;exitX=0.5;exitY=1;exitDx=0;exitDy=0;" parent="1" source="hkdZcMtisLhz9Ig-_JKM-48" target="hkdZcMtisLhz9Ig-_JKM-50" edge="1">
          <mxGeometry relative="1" as="geometry" />
        </mxCell>
        <mxCell id="hkdZcMtisLhz9Ig-_JKM-48" value="生成個性化郵件內文" style="rounded=1;whiteSpace=wrap;html=1;fontSize=15;" parent="1" vertex="1">
          <mxGeometry x="350" y="1260" width="120" height="60" as="geometry" />
        </mxCell>
        <mxCell id="hkdZcMtisLhz9Ig-_JKM-49" style="edgeStyle=orthogonalEdgeStyle;rounded=0;orthogonalLoop=1;jettySize=auto;html=1;entryX=0.5;entryY=0;entryDx=0;entryDy=0;" parent="1" target="hkdZcMtisLhz9Ig-_JKM-48" edge="1">
          <mxGeometry relative="1" as="geometry">
            <mxPoint x="420.41176470588243" y="1190" as="targetPoint" />
            <mxPoint x="410" y="1210" as="sourcePoint" />
          </mxGeometry>
        </mxCell>
        <mxCell id="hkdZcMtisLhz9Ig-_JKM-53" style="edgeStyle=orthogonalEdgeStyle;rounded=0;orthogonalLoop=1;jettySize=auto;html=1;exitX=0.5;exitY=1;exitDx=0;exitDy=0;entryX=0.5;entryY=0;entryDx=0;entryDy=0;" parent="1" source="hkdZcMtisLhz9Ig-_JKM-50" target="hkdZcMtisLhz9Ig-_JKM-52" edge="1">
          <mxGeometry relative="1" as="geometry" />
        </mxCell>
        <mxCell id="hkdZcMtisLhz9Ig-_JKM-50" value="前端顯示個性化內文和來賓資料、卡片供新人比對確認" style="rounded=1;whiteSpace=wrap;html=1;fontSize=16;" parent="1" vertex="1">
          <mxGeometry x="330" y="1370" width="160" height="110" as="geometry" />
        </mxCell>
        <mxCell id="hkdZcMtisLhz9Ig-_JKM-54" style="edgeStyle=orthogonalEdgeStyle;rounded=0;orthogonalLoop=1;jettySize=auto;html=1;exitX=0.5;exitY=1;exitDx=0;exitDy=0;entryX=0.5;entryY=0;entryDx=0;entryDy=0;" parent="1" source="hkdZcMtisLhz9Ig-_JKM-52" target="hkdZcMtisLhz9Ig-_JKM-55" edge="1">
          <mxGeometry relative="1" as="geometry">
            <mxPoint x="410.41176470588243" y="1690" as="targetPoint" />
          </mxGeometry>
        </mxCell>
        <mxCell id="hkdZcMtisLhz9Ig-_JKM-56" value="&lt;font style=&quot;font-size: 14px;&quot;&gt;確認&lt;/font&gt;" style="edgeLabel;html=1;align=center;verticalAlign=middle;resizable=0;points=[];" parent="hkdZcMtisLhz9Ig-_JKM-54" vertex="1" connectable="0">
          <mxGeometry x="-0.1667" y="2" relative="1" as="geometry">
            <mxPoint as="offset" />
          </mxGeometry>
        </mxCell>
        <mxCell id="hkdZcMtisLhz9Ig-_JKM-57" style="edgeStyle=orthogonalEdgeStyle;rounded=0;orthogonalLoop=1;jettySize=auto;html=1;exitX=1;exitY=0.5;exitDx=0;exitDy=0;entryX=1;entryY=0.5;entryDx=0;entryDy=0;" parent="1" source="hkdZcMtisLhz9Ig-_JKM-52" target="hkdZcMtisLhz9Ig-_JKM-55" edge="1">
          <mxGeometry relative="1" as="geometry">
            <mxPoint x="510" y="1690" as="targetPoint" />
            <Array as="points">
              <mxPoint x="500" y="1570" />
              <mxPoint x="500" y="1695" />
            </Array>
          </mxGeometry>
        </mxCell>
        <mxCell id="hkdZcMtisLhz9Ig-_JKM-58" value="&lt;font style=&quot;font-size: 14px;&quot;&gt;不確認，&lt;br&gt;自行再編輯內文&lt;/font&gt;" style="edgeLabel;html=1;align=center;verticalAlign=middle;resizable=0;points=[];fontSize=14;" parent="hkdZcMtisLhz9Ig-_JKM-57" vertex="1" connectable="0">
          <mxGeometry x="-0.0687" y="1" relative="1" as="geometry">
            <mxPoint y="12" as="offset" />
          </mxGeometry>
        </mxCell>
        <mxCell id="hkdZcMtisLhz9Ig-_JKM-60" value="" style="edgeStyle=orthogonalEdgeStyle;rounded=0;orthogonalLoop=1;jettySize=auto;html=1;" parent="1" source="hkdZcMtisLhz9Ig-_JKM-52" target="hkdZcMtisLhz9Ig-_JKM-59" edge="1">
          <mxGeometry relative="1" as="geometry" />
        </mxCell>
        <mxCell id="hkdZcMtisLhz9Ig-_JKM-61" value="刪除&lt;br style=&quot;font-size: 14px;&quot;&gt;欄位" style="edgeLabel;html=1;align=center;verticalAlign=middle;resizable=0;points=[];fontSize=14;" parent="hkdZcMtisLhz9Ig-_JKM-60" vertex="1" connectable="0">
          <mxGeometry x="0.0451" y="2" relative="1" as="geometry">
            <mxPoint x="12" y="-2" as="offset" />
          </mxGeometry>
        </mxCell>
        <mxCell id="hkdZcMtisLhz9Ig-_JKM-52" value="&lt;span style=&quot;font-size: 14px;&quot;&gt;確認與否&lt;/span&gt;" style="rhombus;whiteSpace=wrap;html=1;" parent="1" vertex="1">
          <mxGeometry x="370" y="1530" width="80" height="80" as="geometry" />
        </mxCell>
        <mxCell id="hkdZcMtisLhz9Ig-_JKM-55" value="發布郵件" style="rounded=1;whiteSpace=wrap;html=1;fontSize=16;" parent="1" vertex="1">
          <mxGeometry x="355" y="1670" width="110" height="50" as="geometry" />
        </mxCell>
        <mxCell id="hkdZcMtisLhz9Ig-_JKM-59" value="&lt;font style=&quot;font-size: 15px;&quot;&gt;刪除指定&lt;br&gt;賓客欄位&lt;/font&gt;" style="rounded=1;whiteSpace=wrap;html=1;" parent="1" vertex="1">
          <mxGeometry x="190" y="1540" width="100" height="60" as="geometry" />
        </mxCell>
        <mxCell id="qrtApSuX-HS33oVbi5O9-1" value="&lt;font style=&quot;font-size: 14px;&quot;&gt;刪除該預覽&lt;br style=&quot;font-size: 14px;&quot;&gt;卡片欄位&lt;/font&gt;" style="rounded=1;whiteSpace=wrap;html=1;fontSize=14;" vertex="1" parent="1">
          <mxGeometry x="640" y="810" width="120" height="60" as="geometry" />
        </mxCell>
      </root>
    </mxGraphModel>
  </diagram>
</mxfile>
